<svg width="18" height="18" viewBox="0 0 18 18" fill="none" xmlns="http://www.w3.org/2000/svg">
<path d="M11.9997 2.99872C12.7947 3.0011 13.5564 3.31795 14.1185 3.88009C14.6807 4.44222 14.9975 5.20396 14.9999 5.99893V11.9987C14.9975 12.7937 14.6807 13.5554 14.1185 14.1176C13.5564 14.6797 12.7947 14.9966 11.9997 14.9989H5.99991C5.20494 14.9966 4.4432 14.6797 3.88106 14.1176C3.31893 13.5554 3.00207 12.7937 2.9997 11.9987V5.99893C3.00207 5.20396 3.31893 4.44222 3.88106 3.88009C4.4432 3.31795 5.20494 3.0011 5.99991 2.99872H11.9997ZM11.9997 1.79883H5.99991C3.6898 1.79883 1.7998 3.68883 1.7998 5.99893V11.9987C1.7998 14.3088 3.6898 16.1988 5.99991 16.1988H11.9997C14.3098 16.1988 16.1998 14.3088 16.1998 11.9987V5.99893C16.1998 3.68883 14.3098 1.79883 11.9997 1.79883Z" fill="#FF4E64"/>
<path d="M12.632 6.23574C12.4604 6.23574 12.2926 6.18484 12.1499 6.08947C12.0072 5.99411 11.8959 5.85857 11.8302 5.69999C11.7645 5.5414 11.7474 5.36691 11.7808 5.19856C11.8143 5.03021 11.897 4.87557 12.0184 4.75419C12.1397 4.63282 12.2944 4.55016 12.4627 4.51668C12.6311 4.48319 12.8056 4.50038 12.9642 4.56606C13.1227 4.63175 13.2583 4.74299 13.3536 4.88571C13.449 5.02843 13.4999 5.19622 13.4999 5.36787C13.5001 5.48191 13.4779 5.59487 13.4343 5.70028C13.3908 5.80568 13.3269 5.90145 13.2463 5.98209C13.1656 6.06273 13.0698 6.12665 12.9644 6.17017C12.859 6.2137 12.7461 6.23598 12.632 6.23574ZM8.87138 6.81411C9.32912 6.81411 9.77659 6.94985 10.1572 7.20416C10.5378 7.45847 10.8344 7.81993 11.0096 8.24284C11.1848 8.66574 11.2306 9.13109 11.1413 9.58005C11.052 10.029 10.8316 10.4414 10.5079 10.7651C10.1842 11.0887 9.77185 11.3092 9.3229 11.3985C8.87394 11.4878 8.40859 11.4419 7.98569 11.2668C7.56278 11.0916 7.20132 10.795 6.94701 10.4143C6.6927 10.0337 6.55696 9.58627 6.55696 9.12853C6.55761 8.51491 6.80166 7.92661 7.23556 7.49271C7.66946 7.05882 8.25776 6.81476 8.87138 6.81411ZM8.87138 5.65705C8.18478 5.65705 7.51361 5.86065 6.94273 6.2421C6.37185 6.62355 5.9269 7.16572 5.66415 7.80005C5.40141 8.43438 5.33266 9.13238 5.46661 9.80578C5.60055 10.4792 5.93118 11.0977 6.41667 11.5832C6.90217 12.0687 7.52073 12.3993 8.19412 12.5333C8.86752 12.6672 9.56552 12.5985 10.1998 12.3357C10.8342 12.073 11.3763 11.6281 11.7578 11.0572C12.1392 10.4863 12.3428 9.81512 12.3428 9.12853C12.3428 8.20783 11.9771 7.32485 11.3261 6.67383C10.675 6.0228 9.79207 5.65705 8.87138 5.65705Z" fill="#FF4E64"/>
</svg>
