<svg width="18" height="18" viewBox="0 0 18 18" fill="none" xmlns="http://www.w3.org/2000/svg">
<g clip-path="url(#clip0_5_6407)">
<path d="M16.8852 4.80046L16.8854 4.80129C17.0556 5.43018 17.1496 6.43528 17.1988 7.3185C17.223 7.75275 17.2358 8.1453 17.2426 8.42931C17.246 8.5712 17.2478 8.68573 17.2488 8.76449L17.2498 8.8547L17.25 8.87767L17.25 8.88328L17.25 8.88442L17.25 8.89005L17.2499 8.9131L17.2493 9.00362C17.2486 9.08265 17.2472 9.19755 17.2443 9.33985C17.2386 9.62469 17.2272 10.0182 17.2044 10.4531C17.1579 11.3381 17.0665 12.3417 16.8969 12.9634L16.8965 12.9653C16.7406 13.5455 16.2798 14.0063 15.6995 14.1622L15.6977 14.1627C15.4108 14.2409 14.8598 14.3083 14.1519 14.3607C13.4583 14.4121 12.6553 14.4466 11.8899 14.4696C11.1254 14.4927 10.4025 14.5042 9.87053 14.51C9.60464 14.5128 9.38667 14.5143 9.23532 14.515L9.06064 14.5156L9.01519 14.5157L9.0037 14.5157L9.00086 14.5157H9.00018H9.00003L9 15.0157L8.99997 14.5157H8.99982H8.99914L8.9963 14.5157L8.98481 14.5157L8.93936 14.5156L8.76468 14.515C8.61333 14.5143 8.39536 14.5128 8.12947 14.51C7.59749 14.5042 6.87464 14.4927 6.1101 14.4696C5.34474 14.4466 4.54169 14.4121 3.8481 14.3607C3.14016 14.3083 2.58921 14.2409 2.30229 14.1627L2.30046 14.1622C1.72018 14.0063 1.25944 13.5455 1.10355 12.9653L1.10332 12.9644C0.933444 12.3364 0.842057 11.3321 0.795645 10.4488C0.772831 10.0147 0.761404 9.6222 0.75569 9.33824C0.752836 9.19638 0.751413 9.08188 0.750704 9.00314L0.750086 8.91297L0.75001 8.89001L0.750001 8.88441L0.75 8.88312L0.75 8.88289V8.88286V8.88286V8.88283L0.75 8.88259L0.750001 8.8813L0.75001 8.87568L0.750083 8.85269L0.750683 8.76247C0.751371 8.6837 0.752752 8.56919 0.755521 8.42736C0.761064 8.14347 0.772148 7.7512 0.794279 7.31757C0.839277 6.43589 0.927877 5.43417 1.09256 4.81077C1.2487 4.23093 1.70925 3.77059 2.28923 3.61478L2.28923 3.61478L2.29106 3.61428C2.57839 3.53592 3.1297 3.46791 3.83761 3.41443C4.53128 3.36203 5.33439 3.32616 6.09977 3.30169C6.86435 3.27726 7.58723 3.26432 8.11923 3.25751C8.38512 3.2541 8.6031 3.25222 8.75445 3.2512L8.92914 3.25021L8.9746 3.25004L8.98609 3.25001L8.98893 3.25L8.98895 3.25L8.98963 3.25L8.99247 3.25L9.00396 3.25001L9.04941 3.25009L9.22409 3.25072C9.37544 3.25144 9.5934 3.25288 9.85929 3.25576C10.3913 3.26153 11.1141 3.27307 11.8787 3.29611C12.644 3.31917 13.4471 3.35365 14.1407 3.40501C14.8486 3.45743 15.3996 3.5248 15.6865 3.60305L15.6883 3.60354C16.2686 3.75944 16.7293 4.22018 16.8852 4.80046Z" stroke="#FF0000"/>
<path d="M8.5 7.93426L10.0986 9L8.5 10.0657V7.93426Z" fill="#999CA0" stroke="#FF0000"/>
</g>
<defs>
<clipPath id="clip0_5_6407">
<rect width="17.5" height="17.5" fill="white" transform="translate(0.25 0.25)"/>
</clipPath>
</defs>
</svg>
